<svg width="32" height="30" viewBox="0 0 32 30" fill="none" xmlns="http://www.w3.org/2000/svg">
<path d="M1 1V0.125H0.125V1H1ZM31 1H31.875V0.125H31V1ZM31 29V29.875H31.875V29H31ZM1 29H0.125V29.875H1V29ZM6 8.29167C5.51675 8.29167 5.125 8.68342 5.125 9.16667C5.125 9.64992 5.51675 10.0417 6 10.0417V8.29167ZM26 10.0417C26.4832 10.0417 26.875 9.64992 26.875 9.16667C26.875 8.68342 26.4832 8.29167 26 8.29167V10.0417ZM14.375 13.8333C14.375 13.3501 13.9832 12.9583 13.5 12.9583C13.0167 12.9583 12.625 13.3501 12.625 13.8333H14.375ZM12.625 20.8333C12.625 21.3166 13.0167 21.7083 13.5 21.7083C13.9832 21.7083 14.375 21.3166 14.375 20.8333H12.625ZM19.375 13.8333C19.375 13.3501 18.9832 12.9583 18.5 12.9583C18.0168 12.9583 17.625 13.3501 17.625 13.8333H19.375ZM17.625 20.8333C17.625 21.3166 18.0168 21.7083 18.5 21.7083C18.9832 21.7083 19.375 21.3166 19.375 20.8333H17.625ZM8.12153 9.08885C8.07856 8.60752 7.65352 8.25216 7.17219 8.29513C6.69085 8.33811 6.33549 8.76315 6.37847 9.24448L8.12153 9.08885ZM8.5 23.1667H9.375C9.375 23.1407 9.37384 23.1147 9.37153 23.0889L8.5 23.1667ZM23.5 23.1667L22.6285 23.0889C22.6262 23.1147 22.625 23.1407 22.625 23.1667H23.5ZM25.6215 9.24448C25.6645 8.76315 25.3091 8.33811 24.8278 8.29513C24.3465 8.25216 23.9214 8.60752 23.8785 9.08885L25.6215 9.24448ZM11.375 9.16667C11.375 9.64992 11.7668 10.0417 12.25 10.0417C12.7332 10.0417 13.125 9.64992 13.125 9.16667H11.375ZM13.5 4.5L13.5 3.625L13.5 4.5ZM18.5 4.5V3.625V4.5ZM18.875 9.16667C18.875 9.64992 19.2668 10.0417 19.75 10.0417C20.2332 10.0417 20.625 9.64992 20.625 9.16667H18.875ZM1 1.875H31V0.125H1V1.875ZM30.125 1V29H31.875V1H30.125ZM31 28.125H1V29.875H31V28.125ZM1.875 29V1H0.125V29H1.875ZM6 10.0417H26V8.29167H6V10.0417ZM12.625 13.8333V20.8333H14.375V13.8333H12.625ZM17.625 13.8333V20.8333H19.375V13.8333H17.625ZM6.37847 9.24448L7.62847 23.2445L9.37153 23.0889L8.12153 9.08885L6.37847 9.24448ZM7.625 23.1667C7.625 24.0378 7.99633 24.86 8.63521 25.4563L9.82926 24.1769C9.53045 23.898 9.375 23.5332 9.375 23.1667H7.625ZM8.63521 25.4563C9.27204 26.0506 10.1236 26.375 11 26.375V24.625C10.5503 24.625 10.1301 24.4577 9.82926 24.1769L8.63521 25.4563ZM11 26.375H21V24.625H11V26.375ZM21 26.375C21.8764 26.375 22.728 26.0506 23.3648 25.4563L22.1707 24.1769C21.8699 24.4577 21.4497 24.625 21 24.625V26.375ZM23.3648 25.4563C24.0037 24.86 24.375 24.0378 24.375 23.1667H22.625C22.625 23.5332 22.4695 23.898 22.1707 24.1769L23.3648 25.4563ZM24.3715 23.2445L25.6215 9.24448L23.8785 9.08885L22.6285 23.0889L24.3715 23.2445ZM13.125 9.16667V5.66667H11.375V9.16667H13.125ZM13.125 5.66667C13.125 5.60956 13.1488 5.54148 13.2131 5.48138L12.0191 4.20204C11.6146 4.57952 11.375 5.10494 11.375 5.66667H13.125ZM13.2131 5.48138C13.2796 5.41938 13.3818 5.375 13.5 5.375L13.5 3.625C12.9551 3.625 12.4215 3.82645 12.0191 4.20204L13.2131 5.48138ZM13.5 5.375H18.5V3.625H13.5V5.375ZM18.5 5.375C18.6182 5.375 18.7204 5.41938 18.7869 5.48138L19.9809 4.20204C19.5785 3.82645 19.0449 3.625 18.5 3.625V5.375ZM18.7869 5.48138C18.8512 5.54148 18.875 5.60956 18.875 5.66667H20.625C20.625 5.10494 20.3854 4.57952 19.9809 4.20204L18.7869 5.48138ZM18.875 5.66667V9.16667H20.625V5.66667H18.875Z" fill="#5E5E5E"/>
</svg>
